<svg xmlns="http://www.w3.org/2000/svg" width="512" height="512" viewBox="0 0 512 512"><mask id="a"><circle cx="256" cy="256" r="256" fill="#fff"/></mask><g mask="url(#a)"><path fill="#012169" d="M0 0h512v512H0z"/><path fill="#fff" d="M512 0v28l-200 144 200-144V0zm0 512h-28L256 312v200h256zm-512 0v-28l200-144-200 144v28zm0-512h28l228 200V0z"/><path fill="#c8102e" d="M256 0v512M0 256h512" stroke="#fff" stroke-width="102.4"/><path fill="#c8102e" d="M256 0v512M0 256h512" stroke="#c8102e" stroke-width="61.44"/><path fill="#fff" d="M0 0l256 156 256-156M0 512l256-156 256 156" stroke="#fff" stroke-width="102.4"/><path fill="#fff" d="M0 0l256 156 256-156M0 512l256-156 256 156" stroke="#fff" stroke-width="102.4"/><path fill="#c8102e" d="M0 0l256 156 256-156M0 512l256-156 256 156" stroke="#c8102e" stroke-width="61.44"/></g></svg>
